<svg id="Capa_1" enable-background="new 0 0 512 512" height="512" viewBox="0 0 512 512" width="512" xmlns="http://www.w3.org/2000/svg"><path d="m269.429 128.317c-5.486-11.014-21.319-11.12-26.857 0l-105 211c-2.382 4.786-2.037 10.477.906 14.94l57.522 87.242v55.501c0 8.284 6.716 15 15 15h90c8.284 0 15-6.716 15-15v-55.501l57.522-87.242c2.943-4.463 3.288-10.154.906-14.94zm16.571 353.683h-60v-30h60zm6.924-60h-73.847l-50.8-77.048 72.723-146.14v147.188c0 8.284 6.716 15 15 15s15-6.716 15-15v-147.188l72.724 146.14z"/><path d="m467 0c-19.555 0-36.228 12.541-42.42 30h-123.58v-15c0-8.284-6.716-15-15-15h-60c-8.284 0-15 6.716-15 15v15h-123.58c-6.192-17.459-22.865-30-42.42-30-24.813 0-45 20.187-45 45s20.187 45 45 45c19.555 0 36.228-12.551 42.42-30.01h56.113c-69.896 40.141-113.533 114.297-113.533 195.01 0 8.284 6.716 15 15 15s15-6.716 15-15c0-90.504 63.799-169.22 151-189.782v9.782c0 8.284 6.716 15 15 15h60c8.284 0 15-6.716 15-15v-9.783c87.201 20.563 151 99.279 151 189.783 0 8.284 6.716 15 15 15s15-6.716 15-15c0-80.61-43.55-154.809-113.533-195h56.113c6.192 17.459 22.865 30 42.42 30 24.813 0 45-20.187 45-45s-20.187-45-45-45zm-422 60c-8.271 0-15-6.729-15-15s6.729-15 15-15 15 6.729 15 15-6.729 15-15 15zm226 0h-30v-30h30zm196 0c-8.271 0-15-6.729-15-15s6.729-15 15-15 15 6.729 15 15-6.729 15-15 15z"/></svg>